<svg font-family="Arial, sans-serif" xmlns="http://www.w3.org/2000/svg" width="1600" height="1000" viewBox="0 0 1600 1000" role="img" aria-labelledby="title desc"><title id="title">AI Delivery Platform</title><desc id="desc">V1 · Java 21 · Spring Boot 4 · microsserviços com um banco por serviço</desc><defs><radialGradient id="bg"><stop stop-color="#1b201d"/><stop offset="1" stop-color="#090b0a"/></radialGradient><marker id="arrow" markerWidth="10" markerHeight="10" refX="8" refY="3" orient="auto"><path d="M0,0 L0,6 L9,3 z" fill="context-stroke"/></marker><filter id="glow"><feGaussianBlur stdDeviation="5" result="b"/><feMerge><feMergeNode in="b"/><feMergeNode in="SourceGraphic"/></feMerge></filter></defs><rect width="1600" height="1000" fill="url(#bg)"/><path d="M0 112 H1600" stroke="#2b302d"/><text x="45" y="61" fill="#fff" font-size="38" font-weight="750">AI Delivery Platform</text><rect x="45" y="80" width="510" height="5" rx="3" fill="#c5f567"/><text x="45" y="105" fill="#aeb6af" font-size="17">V1 · Java 21 · Spring Boot 4 · microsserviços com um banco por serviço</text>
<g><rect x="60" y="150" width="400" height="100" rx="18" fill="#151817" stroke="#b3b9ed" stroke-width="3"/><text x="82" y="187" fill="#fff" font-size="23" font-weight="700">Interface web</text><text x="82" y="213" fill="#b3b9ed" font-size="15">React · TypeScript · nginx</text></g>
<path d="M460 200 L600 200" fill="none" stroke="#c5f567" stroke-width="3"  marker-end="url(#arrow)"/>
<g><rect x="600" y="150" width="400" height="100" rx="18" fill="#151817" stroke="#c5f567" stroke-width="3"/><text x="622" y="187" fill="#fff" font-size="23" font-weight="700">API Gateway</text><text x="622" y="213" fill="#c5f567" font-size="15">Spring Cloud Gateway · rotas /api/**</text></g>
<g><rect x="1140" y="150" width="400" height="100" rx="18" fill="#151817" stroke="#67b7ff" stroke-width="3"/><text x="1162" y="187" fill="#fff" font-size="23" font-weight="700">Segurança</text><text x="1162" y="213" fill="#67b7ff" font-size="15">JWT (Bearer) · Spring Security · BCrypt</text></g>
<path d="M800 250 V300 M195 300 H1379 M195 300 V345 M491 300 V345 M787 300 V345 M1083 300 V345 M1379 300 V345" fill="none" stroke="#879087" stroke-width="3"/>
<g><rect x="60" y="345" width="270" height="190" rx="18" fill="#151817" stroke="#67b7ff" stroke-width="3"/><text x="82" y="382" fill="#fff" font-size="23" font-weight="700">User Service</text><text x="82" y="408" fill="#67b7ff" font-size="15">Spring Boot · Security</text><text x="82" y="439" fill="#c9cec8" font-size="15">• Perfis e endereços</text><text x="82" y="461" fill="#c9cec8" font-size="15">• Login e emissão de JWT</text></g>
<path d="M195 535 L195 575" fill="none" stroke="#67b7ff" stroke-width="3"  marker-end="url(#arrow)"/>
<rect x="60" y="575" width="270" height="62" rx="14" fill="#111412" stroke="#67b7ff" stroke-width="2"/><text x="82" y="613" fill="#fff" font-size="18" font-weight="700">PostgreSQL</text><text x="308" y="613" text-anchor="end" fill="#aeb6af" font-size="14">Flyway</text>
<g><rect x="356" y="345" width="270" height="190" rx="18" fill="#151817" stroke="#63db7e" stroke-width="3"/><text x="378" y="382" fill="#fff" font-size="23" font-weight="700">Catalog Service</text><text x="378" y="408" fill="#63db7e" font-size="15">Spring Boot · JPA</text><text x="378" y="439" fill="#c9cec8" font-size="15">• Restaurantes e cardápio</text><text x="378" y="461" fill="#c9cec8" font-size="15">• Preços em centavos</text></g>
<path d="M491 535 L491 575" fill="none" stroke="#63db7e" stroke-width="3"  marker-end="url(#arrow)"/>
<rect x="356" y="575" width="270" height="62" rx="14" fill="#111412" stroke="#63db7e" stroke-width="2"/><text x="378" y="613" fill="#fff" font-size="18" font-weight="700">PostgreSQL</text><text x="604" y="613" text-anchor="end" fill="#aeb6af" font-size="14">Flyway</text>
<g><rect x="652" y="345" width="270" height="190" rx="18" fill="#151817" stroke="#c5f567" stroke-width="3"/><text x="674" y="382" fill="#fff" font-size="23" font-weight="700">Order Service</text><text x="674" y="408" fill="#c5f567" font-size="15">Spring Boot · JPA</text><text x="674" y="439" fill="#c9cec8" font-size="15">• Pedidos, itens e totais</text><text x="674" y="461" fill="#c9cec8" font-size="15">• Snapshot de preços</text><text x="674" y="483" fill="#c9cec8" font-size="15">• Pagamento do pedido</text></g>
<path d="M787 535 L787 575" fill="none" stroke="#c5f567" stroke-width="3"  marker-end="url(#arrow)"/>
<rect x="652" y="575" width="270" height="62" rx="14" fill="#111412" stroke="#c5f567" stroke-width="2"/><text x="674" y="613" fill="#fff" font-size="18" font-weight="700">PostgreSQL</text><text x="900" y="613" text-anchor="end" fill="#aeb6af" font-size="14">Flyway</text>
<g><rect x="948" y="345" width="270" height="190" rx="18" fill="#151817" stroke="#ffb45c" stroke-width="3"/><text x="970" y="382" fill="#fff" font-size="23" font-weight="700">Payment Service</text><text x="970" y="408" fill="#ffb45c" font-size="15">Spring Boot · JPA</text><text x="970" y="439" fill="#c9cec8" font-size="15">• Pagamentos simulados</text><text x="970" y="461" fill="#c9cec8" font-size="15">• Tentativas por pedido</text></g>
<path d="M1083 535 L1083 575" fill="none" stroke="#ffb45c" stroke-width="3"  marker-end="url(#arrow)"/>
<rect x="948" y="575" width="270" height="62" rx="14" fill="#111412" stroke="#ffb45c" stroke-width="2"/><text x="970" y="613" fill="#fff" font-size="18" font-weight="700">PostgreSQL</text><text x="1196" y="613" text-anchor="end" fill="#aeb6af" font-size="14">Flyway</text>
<g><rect x="1244" y="345" width="270" height="190" rx="18" fill="#151817" stroke="#ff6873" stroke-width="3"/><text x="1266" y="382" fill="#fff" font-size="23" font-weight="700">Delivery Service</text><text x="1266" y="408" fill="#ff6873" font-size="15">Spring Boot · JPA</text><text x="1266" y="439" fill="#c9cec8" font-size="15">• Entregas e entregadores</text><text x="1266" y="461" fill="#c9cec8" font-size="15">• Criação idempotente</text></g>
<path d="M1379 535 L1379 575" fill="none" stroke="#ff6873" stroke-width="3"  marker-end="url(#arrow)"/>
<rect x="1244" y="575" width="270" height="62" rx="14" fill="#111412" stroke="#ff6873" stroke-width="2"/><text x="1266" y="613" fill="#fff" font-size="18" font-weight="700">PostgreSQL</text><text x="1492" y="613" text-anchor="end" fill="#aeb6af" font-size="14">Flyway</text>
<g transform="translate(60 675)"><rect width="860" height="180" rx="18" fill="#111412" stroke="#49514b" stroke-width="2"/><text x="24" y="38" fill="#fff" font-size="21" font-weight="700">Comunicação entre serviços · HTTP / JSON</text><text x="24" y="74" fill="#c9cec8" font-size="16">• Order → Catalog: snapshot de nomes e preços no pedido</text><text x="24" y="99" fill="#c9cec8" font-size="16">• Order → Payment: pagamento do pedido</text><text x="24" y="124" fill="#c9cec8" font-size="16">• Order → Delivery: criação idempotente da entrega</text><text x="24" y="149" fill="#c9cec8" font-size="16">• Delivery → Route Intelligence: estimativa de tempo de rota</text></g>
<g><rect x="960" y="675" width="580" height="180" rx="18" fill="#151817" stroke="#55d7d0" stroke-width="3"/><text x="982" y="712" fill="#fff" font-size="23" font-weight="700">Route Intelligence Service</text><text x="982" y="738" fill="#55d7d0" font-size="15">Python · FastAPI · scikit-learn</text><text x="982" y="769" fill="#c9cec8" font-size="15">• Estima tempo de rota com Machine Learning</text><text x="982" y="791" fill="#c9cec8" font-size="15">• Modelos treinados em dados sintéticos</text><text x="982" y="813" fill="#c9cec8" font-size="15">• Validação antes de promover um modelo</text></g>
<text x="60" y="905" fill="#c5f567" font-size="17" font-weight="700">QUALIDADE</text><text x="170" y="905" fill="#c9cec8" font-size="17">Testcontainers · testes web e de segurança · GitHub Actions · Docker Compose + smoke test · Actuator e observabilidade</text><text x="1555" y="965" text-anchor="end" fill="#646c66" font-size="14">VICTHOR SANTOS · ARQUITETURA DO PROJETO</text></svg>