<svg xmlns="http://www.w3.org/2000/svg" width="1600" height="1000" viewBox="0 0 1600 1000" role="img" aria-labelledby="title desc"><title id="title">Controle Financeiro</title><desc id="desc">API REST segura para gestão financeira pessoal</desc><defs><radialGradient id="bg"><stop stop-color="#1b201d"/><stop offset="1" stop-color="#090b0a"/></radialGradient><marker id="arrow" markerWidth="10" markerHeight="10" refX="8" refY="3" orient="auto"><path d="M0,0 L0,6 L9,3 z" fill="context-stroke"/></marker><filter id="glow"><feGaussianBlur stdDeviation="5" result="b"/><feMerge><feMergeNode in="b"/><feMergeNode in="SourceGraphic"/></feMerge></filter></defs><rect width="1600" height="1000" fill="url(#bg)"/><path d="M0 112 H1600" stroke="#2b302d"/><text x="45" y="61" fill="#fff" font-size="38" font-weight="750">Controle Financeiro</text><rect x="45" y="80" width="510" height="5" rx="3" fill="#b3b9ed"/><text x="45" y="105" fill="#aeb6af" font-size="17">API REST segura para gestão financeira pessoal</text>
<g><rect x="575" y="150" width="450" height="110" rx="18" fill="#151817" stroke="#b3b9ed" stroke-width="3"/><text x="597" y="187" fill="#fff" font-size="23" font-weight="700">Cliente</text><text x="597" y="213" fill="#b3b9ed" font-size="15">Web · Mobile · Postman</text></g><path d="M800 260 L800 355" fill="none" stroke="#b3b9ed" stroke-width="3"  marker-end="url(#arrow)"/>
<text x="610" y="310" fill="#aeb6af" font-size="17">HTTPS · JSON · sessão autenticada</text>
<g><rect x="560" y="355" width="480" height="145" rx="18" fill="#151817" stroke="#c5f567" stroke-width="3"/><text x="582" y="392" fill="#fff" font-size="23" font-weight="700">API REST</text><text x="582" y="418" fill="#c5f567" font-size="15">Spring Boot · controllers · DTOs · validação</text><text x="582" y="449" fill="#c9cec8" font-size="15">• Contas, categorias e transações</text></g>
<g><rect x="80" y="370" width="330" height="180" rx="18" fill="#151817" stroke="#67b7ff" stroke-width="3"/><text x="102" y="407" fill="#fff" font-size="23" font-weight="700">Spring Security</text><text x="102" y="433" fill="#67b7ff" font-size="15">Sessão · BCrypt · CSRF</text><text x="102" y="464" fill="#c9cec8" font-size="15">• Cadastro e login</text><text x="102" y="486" fill="#c9cec8" font-size="15">• Controle de acesso</text><text x="102" y="508" fill="#c9cec8" font-size="15">• Isolamento por usuário</text></g>
<path d="M410 445 L560 445" fill="none" stroke="#67b7ff" stroke-width="3"  marker-end="url(#arrow)"/><path d="M560 480 L410 480" fill="none" stroke="#67b7ff" stroke-width="3" stroke-dasharray="9 8" marker-end="url(#arrow)"/>
<g><rect x="1180" y="370" width="340" height="180" rx="18" fill="#151817" stroke="#65d998" stroke-width="3"/><text x="1202" y="407" fill="#fff" font-size="23" font-weight="700">PostgreSQL</text><text x="1202" y="433" fill="#65d998" font-size="15">Persistência relacional</text><text x="1202" y="464" fill="#c9cec8" font-size="15">• Usuários e contas</text><text x="1202" y="486" fill="#c9cec8" font-size="15">• Categorias</text><text x="1202" y="508" fill="#c9cec8" font-size="15">• Transações</text></g>
<path d="M1040 445 L1180 445" fill="none" stroke="#65d998" stroke-width="3"  marker-end="url(#arrow)"/><path d="M1180 480 L1040 480" fill="none" stroke="#65d998" stroke-width="3" stroke-dasharray="9 8" marker-end="url(#arrow)"/>
<path d="M800 500 L800 615" fill="none" stroke="#c5f567" stroke-width="3"  marker-end="url(#arrow)"/><g><rect x="530" y="615" width="540" height="230" rx="18" fill="#151817" stroke="#ffb45c" stroke-width="3"/><text x="552" y="652" fill="#fff" font-size="23" font-weight="700">Camada de negócio</text><text x="552" y="678" fill="#ffb45c" font-size="15">Services · regras · consistência</text><text x="552" y="709" fill="#c9cec8" font-size="15">• Receitas e despesas</text><text x="552" y="731" fill="#c9cec8" font-size="15">• Saldo por conta</text><text x="552" y="753" fill="#c9cec8" font-size="15">• Extrato com filtros</text><text x="552" y="775" fill="#c9cec8" font-size="15">• Resumo financeiro mensal</text></g>
<g transform="translate(155 675)"><rect width="270" height="160" rx="18" fill="#111412" stroke="#49514b" stroke-width="2"/><text x="22" y="38" fill="#fff" font-size="21" font-weight="700">Qualidade</text><text x="22" y="72" fill="#c9cec8" font-size="15">• Flyway migrations</text><text x="22" y="95" fill="#c9cec8" font-size="15">• JUnit + H2</text><text x="22" y="118" fill="#c9cec8" font-size="15">• Clean Code</text></g>
<g transform="translate(1175 675)"><rect width="270" height="160" rx="18" fill="#111412" stroke="#49514b" stroke-width="2"/><text x="22" y="38" fill="#fff" font-size="21" font-weight="700">Principais fluxos</text><text x="22" y="72" fill="#c9cec8" font-size="15">• Autenticação</text><text x="22" y="95" fill="#c9cec8" font-size="15">• CRUD financeiro</text><text x="22" y="118" fill="#c9cec8" font-size="15">• Relatórios mensais</text></g><text x="1555" y="965" text-anchor="end" fill="#646c66" font-size="14">VICTHOR SANTOS · ARQUITETURA DO PROJETO</text></svg>